<svg xmlns="http://www.w3.org/2000/svg" xmlns:xlink="http://www.w3.org/1999/xlink" id="Layer_1" width="480" height="70" x="0" style="enable-background:new 0 0 480 70" y="0" version="1.1" viewBox="0 0 480 70" xml:space="preserve"><style type="text/css">.st0{fill:url(#SVGID_1_)}.st1{fill:url(#SVGID_2_)}.st2{fill:url(#SVGID_3_)}.st3{fill:url(#SVGID_4_)}.st4{fill:url(#SVGID_5_)}.st5{fill:url(#SVGID_6_)}.st6{fill:#fff}</style><g><g><linearGradient id="SVGID_1_" x1="50.263" x2="50.263" y1="20.418" y2="47.512" gradientUnits="userSpaceOnUse"><stop offset="0" style="stop-color:#144e8b"/><stop offset="1" style="stop-color:#0094d9"/></linearGradient><path d="M52.6,45c1.8-3.7,2.8-7.9,2.8-12.4c-0.1-5.2-1.7-10.1-4.3-14.2C49,20.8,47,23,45.2,25 C54.1,29.6,54,38.6,52.6,45z" class="st0"/><linearGradient id="SVGID_2_" x1="24.733" x2="11.16" y1="17.897" y2="40.603" gradientUnits="userSpaceOnUse"><stop offset=".161" style="stop-color:#204788"/><stop offset=".209" style="stop-color:#1d4f90"/><stop offset=".538" style="stop-color:#0e82c3"/><stop offset=".786" style="stop-color:#04a2e3"/><stop offset=".923" style="stop-color:#00aeef"/></linearGradient><path d="M29.6,39c-3.8-6.8-5-12.3-4.7-16.7c-6.1,0.4-13.5,1.6-22.4,3.7v0C3.6,32.4,8.9,52.5,29.6,39z" class="st1"/><linearGradient id="SVGID_3_" x1="17.398" x2="46.574" y1="7.454" y2="23.057" gradientUnits="userSpaceOnUse"><stop offset=".345" style="stop-color:#00aeef"/><stop offset=".452" style="stop-color:#04a3e4"/><stop offset=".641" style="stop-color:#0e86c7"/><stop offset=".887" style="stop-color:#1f5898"/><stop offset="1" style="stop-color:#284180"/></linearGradient><path d="M24.9,22.2c9.5-0.6,16,0.6,20.3,2.8c1.9-2,3.8-4.2,5.8-6.6c-3.4-5.2-8.5-9.1-14.5-11 C31.2,9.9,25.5,14.3,24.9,22.2z" class="st2"/><linearGradient id="SVGID_4_" x1="55.35" x2="1.547" y1="40.579" y2="40.579" gradientUnits="userSpaceOnUse"><stop offset=".119" style="stop-color:#00aeef"/><stop offset=".207" style="stop-color:#02a8e9"/><stop offset=".326" style="stop-color:#0997d7"/><stop offset=".463" style="stop-color:#137dbb"/><stop offset=".55" style="stop-color:#1b68a5"/></linearGradient><path d="M45.2,25C39.2,31.6,34,36,29.6,39c2.8,5,6.9,10.7,12.7,17.2c4.4-2.7,8-6.5,10.3-11.2 C54,38.6,54.1,29.6,45.2,25z" class="st3"/><linearGradient id="SVGID_5_" x1="39.06" x2="84.033" y1="-79.874" y2="-79.874" gradientTransform="matrix(0.9811 0.1936 -0.1936 0.9811 -54.1605 110.9176)" gradientUnits="userSpaceOnUse"><stop offset=".242" style="stop-color:#274084"/><stop offset=".503" style="stop-color:#1a5499"/><stop offset=".927" style="stop-color:#007dc4"/></linearGradient><path d="M29.6,39C8.9,52.5,3.6,32.4,2.5,26c-0.7,2.4-1,4.9-0.9,7.6C1.8,48.4,14.1,60.2,28.9,60 c4.9-0.1,9.5-1.5,13.4-3.8C36.4,49.6,32.3,43.9,29.6,39z" class="st4"/><linearGradient id="SVGID_6_" x1="9.644" x2="21.635" y1="27.01" y2="12.72" gradientUnits="userSpaceOnUse"><stop offset=".242" style="stop-color:#274084"/><stop offset=".503" style="stop-color:#1a5499"/><stop offset=".927" style="stop-color:#007dc4"/></linearGradient><path d="M28,6.2C15.7,6.4,5.5,14.7,2.5,26c8.9-2.2,16.3-3.3,22.4-3.7c0.6-7.9,6.4-12.4,11.7-14.8 C33.8,6.6,30.9,6.1,28,6.2z" class="st5"/></g><path d="M60.7,45.3c0-10.7,5.7-13.8,23.6-13.8h1.9c-0.1-5.4-1.3-7.8-8.9-7.8c-4.5,0-8.3,1.7-10.5,3.2l-3.3-5.1 c2.4-1.7,8-4.2,14.4-4.2c12.2,0,14.4,4.4,14.4,15.1v13.4c0,3.7,0.3,4.2,3.5,4.2v5.8C95.3,56,94.5,56,93.2,56 c-3.9,0-5.2-1.2-6.1-4.3c-2.1,3.2-6,4.9-13.6,4.9C63.2,56.6,60.7,51.6,60.7,45.3z M86.2,39.4v-2.3h-1.6c-14.7,0-17.9,1.8-17.9,7.7 c0,4,1.7,6.2,7.8,6.2C82.8,50.9,86.2,47.4,86.2,39.4z" class="st6"/><path d="M97.1,45.3c0-10.7,5.7-13.8,23.6-13.8h1.9c-0.1-5.4-1.3-7.8-8.9-7.8c-4.5,0-8.3,1.7-10.5,3.2l-3.3-5.1 c2.4-1.7,8-4.2,14.4-4.2c12.2,0,14.4,4.4,14.4,15.1v13.4c0,3.7,0.3,4.2,3.5,4.2v5.8c-0.4,0.1-1.3,0.1-2.6,0.1 c-3.9,0-5.2-1.2-6.1-4.3c-2.1,3.2-6,4.9-13.6,4.9C99.6,56.6,97.1,51.6,97.1,45.3z M122.6,39.4v-2.3H121c-14.7,0-17.9,1.8-17.9,7.7 c0,4,1.7,6.2,7.8,6.2C119.2,50.9,122.6,47.4,122.6,39.4z" class="st6"/><path d="M134.5,18.7l4.9-0.3l0.5,4c1.9-3.2,5.9-4.9,13.9-4.9c12,0,15.3,8.1,15.3,19.6c0,11.4-3.4,19.5-15.6,19.5 c-7.5,0-11-1.5-12.8-4.5v15.1h-6.3V18.7z M162.7,37.3c0-8.3-2.1-13.5-10.3-13.5c-8.4,0-11.7,3.5-11.7,13.5 c0,9.9,3.1,13.3,11.7,13.3C160.6,50.6,162.7,45.5,162.7,37.3z" class="st6"/></g><g><path d="M181.8,18.9l3.9-0.3l0.5,3.9c1.6-2.6,5-4.8,13.2-4.8c11.5,0,12.9,6.3,12.9,15.5v22.9h-4.9v-22 c0-6.7-0.6-11.3-9.4-11.3c-9.5,0-11.2,5.2-11.2,12.2v21.1h-4.9V18.9z" class="st6"/><path d="M215.4,37.3c0-10.9,3.1-19.6,16.9-19.6c14.3,0,14.8,10.4,14.7,21.4h-26.9c0.3,7.9,2.5,13.3,12.4,13.3 c5.9,0,8.7-1.6,11.5-3.8l2.6,3.6c-3.6,2.9-7.6,4.7-14.1,4.7C218.2,56.9,215.4,48.2,215.4,37.3z M220.2,34.4h22.2 c-0.3-6.7-0.8-12-10.1-12C223.3,22.3,220.7,27.1,220.2,34.4z" class="st6"/><path d="M246.9,18.6h5.1L262.3,49l9.6-30.4h4.8l9.6,30.3l10.3-30.3h5l-12.9,37.9h-4.8l-9.6-30.1l-9.6,30.1h-4.8 L246.9,18.6z" class="st6"/><path d="M299.8,52.6l2.6-4c4.2,2.9,8.8,3.7,12.5,3.7c6.5,0,9.4-1.3,9.4-6.6c0-4.2-2.6-5-9.4-6.5 c-8.3-1.7-13.4-3.2-13.4-11.3c0-6.5,3.6-10.3,13.4-10.3c5.4,0,9.8,1.2,13.1,3.3l-2.3,4.2c-2.7-1.6-6.3-2.7-10.7-2.7 c-6.7,0-8.7,2.1-8.7,5.5c0,4.1,2.6,5.2,8.9,6.5c8.7,1.8,13.9,3.1,13.9,11.1c0,8.6-4.5,11.3-14.4,11.3 C309.9,56.8,304.7,55.9,299.8,52.6z" class="st6"/><path d="M331.8,18.9l3.9-0.3l0.5,5c1.4-2.9,5.7-5.4,12.3-5.5v5.2c-8.7,0-11.8,5.2-11.8,12.6v20.3h-4.9V18.9z" class="st6"/><path d="M348.6,37.3c0-12.9,4.8-19.6,17.2-19.6s17.3,6.7,17.3,19.6c0,12.9-4.9,19.6-17.3,19.6S348.6,50.2,348.6,37.3z M378.1,37.4c0-9.7-3.3-14.8-12.3-14.8c-9,0-12.3,5.2-12.3,14.8c0,9.6,3.3,14.8,12.3,14.8C374.8,52.2,378.1,47,378.1,37.4z" class="st6"/><path d="M384.8,37.3c0-12.9,4.8-19.6,17.2-19.6s17.3,6.7,17.3,19.6c0,12.9-4.9,19.6-17.3,19.6S384.8,50.2,384.8,37.3z M414.2,37.4c0-9.7-3.3-14.8-12.3-14.8c-9,0-12.3,5.2-12.3,14.8c0,9.6,3.3,14.8,12.3,14.8C410.9,52.2,414.2,47,414.2,37.4z" class="st6"/><path d="M422.6,18.9l3.9-0.3l0.5,3.9c1.4-2.6,4.8-4.8,12.9-4.8c7.9,0,10.1,2.1,11,5.1c1.6-2.9,5.6-5.1,13.8-5.1 c11.5,0,12.5,6.3,12.5,15.5v22.9h-4.9v-22c0-6.7-0.3-11.3-9-11.3c-9.5,0-10.9,5.2-10.9,12.2v21.1h-4.8v-22c0-6.7-0.3-11.3-9-11.3 c-9.5,0-10.9,5.2-10.9,12.2v21.1h-4.9V18.9z" class="st6"/></g></svg>